# xmcd CD database file
#
# Track frame offsets:
#	150
#	6777
#	33937
#	72247
#	96782
#	121987
#	150207
#	176050
#	216705
#
# Disc length: 3248 seconds
#
# Revision: 3
# Processed by: cddbd v1.5.2PL0 Copyright (c) Steve Scherf et al.
# Submitted via: CDex 1.81
#
DISCID=720cae09
DTITLE=Naoya Matsuoka - June July August -Summer Pieces-
DYEAR=1990
DGENRE=Jazz
TTITLE0=Departure
TTITLE1=Summer Beat Paradise
TTITLE2=Transpacific Tour
TTITLE3=Early Rising Girl
TTITLE4=A Lonely Sea Bird
TTITLE5=The Chase
TTITLE6=Night In Madrid
TTITLE7=Dancing Serenade
TTITLE8=Down By The Seaside
EXTD=YEAR: 1990
EXTT0=
EXTT1=
EXTT2=
EXTT3=
EXTT4=
EXTT5=
EXTT6=
EXTT7=
EXTT8=
PLAYORDER=
